<svg xmlns="http://www.w3.org/2000/svg" x="0px" y="0px" width="100" height="100" viewBox="0 0 100 100">
<path d="M49.124,78.947c-9.388-0.002-17.216-1.618-23.34-4.812c-0.557,0.593-0.856,1.003-0.862,1.012	c-1.172,1.695-3.171,2.743-5.306,2.743c-1.333,0-2.614-0.401-3.707-1.162c-1.419-0.981-2.376-2.466-2.688-4.175	c-0.16-0.882-0.139-1.769,0.057-2.616c-2.061-0.093-3.954-1.153-5.107-2.876c-1.314-1.96-1.415-4.387-0.479-6.385	c-0.773-0.565-1.425-1.305-1.894-2.183c-1.69-3.16-0.493-7.106,2.668-8.797c0.962-0.514,2.005-0.98,3.121-1.398	c0.237-2.989,0.94-5.917,2.099-8.747c-2.691-7.998-0.746-13.76,0.751-16.599c0.982-1.864,3.153-5.085,6.646-5.704	c0.839-0.149,1.724-0.225,2.628-0.225c4.378,0,8.701,1.754,11.607,3.15c2.471-0.818,5.025-1.396,7.639-1.73	c4.121-6.619,9.204-7.397,11.358-7.397c0.462,0,0.912,0.032,1.339,0.096c2.425,0.323,4.69,1.217,6.695,2.625	c2.729-1.185,5.239-1.766,7.606-1.766c0.98,0,1.945,0.103,2.867,0.304c1.573,0.343,6.498,2.098,8.314,10.645	c0.161,0.124,0.318,0.253,0.473,0.386c4.948,4.291,5.966,11.018,2.875,17.408c1.391,0.051,2.78,0.179,4.147,0.381	c1.717,0.254,3.233,1.162,4.268,2.559c1.035,1.395,1.464,3.109,1.208,4.827c-0.257,1.725-1.194,3.218-2.511,4.22	c1.354,1.866,1.674,4.396,0.614,6.619c-0.521,1.097-1.336,2.004-2.323,2.646c0.506,0.772,0.843,1.65,0.984,2.59	c0.259,1.718-0.167,3.434-1.199,4.831c-1.218,1.65-3.174,2.638-5.229,2.638c-1.397,0-2.731-0.438-3.856-1.269	c-0.701-0.517-1.443-0.966-2.223-1.343c-1.041,1.001-2.178,1.928-3.401,2.772c-6.374,4.404-15.306,6.731-25.829,6.731H49.124z" opacity=".35"></path><path fill="#f2f2f2" d="M47.124,76.947c-9.388-0.002-17.216-1.618-23.34-4.812c-0.557,0.593-0.856,1.003-0.862,1.012	c-1.172,1.695-3.171,2.743-5.306,2.743c-1.333,0-2.614-0.401-3.707-1.162c-1.419-0.981-2.376-2.466-2.688-4.175	c-0.16-0.882-0.139-1.769,0.057-2.616c-2.061-0.093-3.954-1.153-5.107-2.876c-1.314-1.96-1.415-4.387-0.479-6.385	c-0.773-0.565-1.425-1.305-1.894-2.183c-1.69-3.16-0.493-7.106,2.668-8.797c0.962-0.514,2.005-0.98,3.121-1.398	c0.237-2.989,0.94-5.917,2.099-8.747c-2.691-7.998-0.746-13.76,0.751-16.599c0.982-1.864,3.153-5.085,6.646-5.704	c0.839-0.149,1.724-0.225,2.628-0.225c4.378,0,8.701,1.754,11.607,3.15c2.471-0.818,5.025-1.396,7.639-1.73	c4.121-6.619,9.204-7.397,11.358-7.397c0.462,0,0.912,0.032,1.339,0.096c2.425,0.323,4.69,1.217,6.695,2.625	c2.729-1.185,5.239-1.766,7.606-1.766c0.98,0,1.945,0.103,2.867,0.304c1.573,0.343,6.498,2.098,8.314,10.645	c0.161,0.124,0.318,0.253,0.473,0.386c4.948,4.291,5.966,11.018,2.875,17.408c1.391,0.051,2.78,0.179,4.147,0.381	c1.717,0.254,3.233,1.162,4.268,2.559c1.035,1.395,1.464,3.109,1.208,4.827c-0.257,1.725-1.194,3.218-2.511,4.22	c1.354,1.866,1.674,4.396,0.614,6.619c-0.521,1.097-1.336,2.004-2.323,2.646c0.506,0.772,0.843,1.65,0.984,2.59	c0.259,1.718-0.167,3.434-1.199,4.831c-1.218,1.65-3.174,2.638-5.229,2.638c-1.397,0-2.731-0.438-3.856-1.269	c-0.701-0.517-1.443-0.966-2.223-1.343c-1.041,1.001-2.178,1.928-3.401,2.772c-6.374,4.404-15.306,6.731-25.829,6.731H47.124z"></path><path fill="#fff" d="M72.847,34.99c1.766-13.721-1.794-17.982-3.409-18.334c-5.244-1.142-12.531,4.505-15.546,6.771 c-2.447-0.522-4.986-0.83-7.603-0.83c-4.834,0-9.348,0.975-13.359,2.661c-2.497-1.275-8.245-4.403-12.71-3.609 c-0.988,0.176-6.071,5.938-1.465,16.126c-1.757,3.309-2.758,6.971-2.758,10.828c0,14.248,11.908,21.841,31.128,21.845 c18.384,0.003,30.501-7.597,30.501-21.845C77.626,43.624,75.848,38.965,72.847,34.99z"></path><path fill="#40396e" d="M47.135,71.947c-0.004,0-0.007,0-0.011,0c-20.735-0.004-32.628-8.513-32.628-23.345 c0-3.751,0.874-7.408,2.599-10.881c-3.021-7.179-1.464-12.104-0.234-14.437c0.721-1.367,1.912-2.903,3.096-3.113 c4.622-0.819,10.212,1.98,13.044,3.436c6.34-2.515,13.259-3.209,20.53-1.786c3.565-2.68,10.601-7.854,16.227-6.631 c2.547,0.555,6.348,5.272,4.652,19.391c3.088,4.283,4.717,9.118,4.717,14.021c0,7.379-3.113,13.431-9.004,17.5 C64.588,69.926,56.639,71.947,47.135,71.947z M20.674,23.094c-0.99,0.774-4.382,5.595-0.553,14.063 c0.191,0.424,0.176,0.911-0.042,1.321c-1.714,3.228-2.583,6.634-2.583,10.125c0,12.926,10.799,20.341,29.628,20.345 c0.004,0,0.007,0,0.011,0c8.893,0,16.251-1.837,21.282-5.313c5.115-3.534,7.709-8.592,7.709-15.032 c0-4.436-1.548-8.83-4.477-12.708c-0.236-0.313-0.341-0.707-0.29-1.096c1.613-12.541-1.42-16.398-2.258-16.682 c-4.385-0.944-11.135,4.12-14.014,6.286l-0.296,0.223c-0.347,0.262-0.786,0.36-1.214,0.268c-7.157-1.527-13.924-0.834-20.068,1.746 c-0.408,0.172-0.869,0.154-1.264-0.047l-0.419-0.216C29.398,25.127,24.396,22.562,20.674,23.094z"></path><path fill="#40396e" d="M9.532,54.93c-0.535,0-1.054-0.287-1.324-0.793c-0.391-0.73-0.114-1.64,0.616-2.03	c5.381-2.875,12.457-3.12,12.755-3.129c0.806-0.059,1.52,0.625,1.545,1.453c0.025,0.827-0.625,1.52-1.453,1.545	c-0.065,0.002-6.682,0.239-11.433,2.777C10.013,54.873,9.771,54.93,9.532,54.93z"></path><path fill="#40396e" d="M11.573,62.944c-0.484,0-0.959-0.233-1.248-0.665c-0.461-0.688-0.278-1.617,0.408-2.079	c0.195-0.131,4.863-3.227,11.596-4.178c0.813-0.114,1.578,0.455,1.695,1.275c0.116,0.82-0.455,1.579-1.275,1.695	c-6.021,0.851-10.302,3.67-10.344,3.698C12.148,62.862,11.859,62.944,11.573,62.944z"></path><path fill="#40396e" d="M17.616,70.891c-0.295,0-0.593-0.086-0.853-0.267c-0.682-0.472-0.852-1.406-0.38-2.087	c0.14-0.202,3.484-4.963,9.45-7.424c0.77-0.315,1.643,0.05,1.959,0.814c0.315,0.766-0.049,1.643-0.814,1.959	c-5.156,2.127-8.099,6.315-8.128,6.357C18.56,70.665,18.092,70.891,17.616,70.891z"></path><path fill="#d84178" d="M60.704,25.545c0,0-1.671-8.148-8.148-8.983c0,0-3.969-0.627-7.103,7.73c0,0-2.507,7.73,2.507,10.028	c0,0,3.343,1.253,9.61-1.88L60.704,25.545z"></path><path fill="#d84178" d="M64.673,27.634c0,0,6.894-3.343,10.028-0.627s2.298,6.894,0,10.237	c-1.543,2.245-3.76,3.969-6.267,3.76c-2.507-0.209-5.014-1.88-6.476-5.85L64.673,27.634z"></path><path fill="#40396e" d="M72.531,47.969c-0.611,0-1.186-0.376-1.408-0.983c-0.285-0.777,0.113-1.64,0.892-1.925	c0.241-0.089,6.007-2.156,13.885-0.989c0.819,0.121,1.386,0.884,1.264,1.703c-0.121,0.82-0.891,1.39-1.703,1.264	c-7.131-1.055-12.359,0.82-12.412,0.839C72.878,47.939,72.703,47.969,72.531,47.969z"></path><path fill="#40396e" d="M84.343,56.055c-0.216,0-0.436-0.047-0.644-0.146c-4.063-1.936-10.193-1.964-10.255-1.964	c-0.828-0.001-1.499-0.673-1.499-1.501c0.001-0.828,0.672-1.499,1.5-1.499c0.278,0,6.861,0.025,11.543,2.255	c0.748,0.356,1.066,1.251,0.71,1.999C85.441,55.739,84.903,56.055,84.343,56.055z"></path><path fill="#40396e" d="M82.444,65.055c-0.31,0-0.622-0.096-0.89-0.293c-5.363-3.959-10.917-3.724-10.98-3.717	c-0.849,0.015-1.532-0.591-1.577-1.416c-0.046-0.825,0.583-1.531,1.408-1.579c0.269-0.019,6.664-0.328,12.931,4.298	c0.667,0.492,0.809,1.432,0.316,2.098C83.358,64.844,82.904,65.055,82.444,65.055z"></path><ellipse cx="31.528" cy="53.48" fill="#40396e" rx="2.507" ry="3.465"></ellipse><ellipse cx="63.496" cy="51.501" fill="#40396e" rx="2.496" ry="3.546"></ellipse><ellipse cx="47.994" cy="57.504" fill="#ffc571" rx="4.429" ry="2.924" transform="rotate(-2.987 48.039 57.554)"></ellipse><path fill="#40396e" d="M47.785,61.934c-3.116,0-5.588-1.753-5.713-4.119c-0.129-2.479,2.371-4.555,5.691-4.729 c3.315-0.173,6.022,1.633,6.151,4.109s-2.37,4.553-5.69,4.727l0,0C48.077,61.93,47.93,61.934,47.785,61.934z M48.196,56.075 c-0.091,0-0.183,0.002-0.276,0.007c-1.759,0.092-2.881,1.009-2.852,1.575c0.029,0.565,1.229,1.362,3,1.269 c1.758-0.092,2.88-1.009,2.851-1.574C50.892,56.815,49.804,56.075,48.196,56.075z"></path><path fill="#88265a" d="M55.272,30.35c-1.615,0-2.925-1.309-2.925-2.925c0-1.615,1.309-2.925,2.925-2.925 c1.064,0,1.995,0.568,2.507,1.418"></path><path fill="#88265a" d="M55.271,31.35c-2.164,0-3.925-1.761-3.925-3.925s1.761-3.925,3.925-3.925 c1.368,0,2.658,0.729,3.364,1.902l-1.713,1.031c-0.353-0.584-0.97-0.934-1.651-0.934c-1.062,0-1.925,0.863-1.925,1.925 s0.863,1.925,1.925,1.925V31.35z"></path><path fill="#88265a" d="M66.344,30.156c2.344-0.281,3.552,1.191,3.552,2.692c0,1.501-0.836,2.718-2.82,2.718 c-0.409,0-1.95-0.159-2.7-1.284"></path><path fill="#88265a" d="M67.075,36.565c-0.884,0-2.622-0.364-3.532-1.729l1.664-1.109c0.456,0.685,1.528,0.839,1.868,0.839 c1.225,0,1.82-0.562,1.82-1.718c0-0.488-0.199-0.945-0.547-1.254c-0.436-0.386-1.086-0.543-1.886-0.444l-0.238-1.986 c1.744-0.212,2.841,0.393,3.451,0.935c0.775,0.688,1.22,1.69,1.22,2.75C70.896,35.106,69.396,36.565,67.075,36.565z"></path><path fill="#40396e" d="M17.666,41.534c-0.197,0-0.397-0.039-0.59-0.121c-0.762-0.327-1.114-1.209-0.788-1.97	c1.329-3.099,4.012-6.261,4.126-6.394c0.538-0.631,1.485-0.702,2.113-0.168c0.631,0.538,0.706,1.484,0.169,2.115	c-0.025,0.029-2.504,2.954-3.65,5.628C18.802,41.194,18.248,41.534,17.666,41.534z"></path><circle cx="61.121" cy="30.768" r="5.85" fill="#d84178"></circle><path fill="#40396e" d="M47.135,71.947c-0.004,0-0.007,0-0.011,0c-20.735-0.004-32.628-8.513-32.628-23.345	c0-3.751,0.874-7.408,2.599-10.881c-3.021-7.179-1.464-12.104-0.234-14.437c0.721-1.367,1.912-2.903,3.096-3.113	c4.622-0.819,10.211,1.98,13.045,3.436c3.502-1.388,7.218-2.205,11.066-2.435c3.578-7.506,8.007-7.221,8.882-7.08	c2.528,0.326,4.804,1.585,6.617,3.66c4.088-2.325,7.431-3.165,10.19-2.563c1.819,0.396,4.111,2.965,4.831,8.865	c0.658,0.268,1.244,0.623,1.751,1.062c3.691,3.201,3.869,8.492,0.458,13.492c1.546,3.217,2.329,6.574,2.329,9.993	c0,7.379-3.113,13.431-9.004,17.5C64.588,69.926,56.639,71.947,47.135,71.947z M20.674,23.094c-0.99,0.774-4.382,5.595-0.553,14.063	c0.191,0.424,0.176,0.911-0.042,1.321c-1.714,3.228-2.583,6.634-2.583,10.125c0,12.926,10.799,20.341,29.628,20.345	c0.004,0,0.008,0,0.011,0c8.893,0,16.251-1.837,21.282-5.313c5.115-3.534,7.709-8.592,7.709-15.032c0-3.23-0.813-6.41-2.414-9.449	c-0.275-0.522-0.219-1.157,0.146-1.623l0.08-0.103c0.119-0.151,0.238-0.302,0.352-0.466c0-0.001,0-0.001,0-0.001	c2.603-3.786,2.634-7.366,0.085-9.576c-0.402-0.349-0.905-0.594-1.538-0.751c-0.622-0.154-1.078-0.688-1.133-1.326	c-0.468-5.387-2.173-7.042-2.604-7.19c-2.168-0.476-5.242,0.493-9.112,2.873c-0.675,0.415-1.554,0.234-2.011-0.411	c-1.453-2.055-3.289-3.237-5.456-3.518c-0.077-0.01-3.248-0.389-6.091,6.163c-0.23,0.531-0.745,0.883-1.324,0.902	c-4.059,0.141-7.96,0.986-11.596,2.513c-0.408,0.172-0.869,0.154-1.264-0.047l-0.419-0.216	C29.398,25.127,24.396,22.562,20.674,23.094z"></path>
</svg>